<?xml version="1.0" standalone="no"?>
<!DOCTYPE svg PUBLIC "-//W3C//DTD SVG 20010904//EN"
 "http://www.w3.org/TR/2001/REC-SVG-20010904/DTD/svg10.dtd">
<svg version="1.0" xmlns="http://www.w3.org/2000/svg"
 width="413.000000pt" height="392.000000pt" viewBox="0 0 413.000000 392.000000"
 preserveAspectRatio="xMidYMid meet">

<g transform="translate(0.000000,392.000000) scale(0.100000,-0.100000)"
fill="#000000" stroke="none">
<path d="M0 1960 l0 -1960 2065 0 2065 0 0 1960 0 1960 -2065 0 -2065 0 0
-1960z m2853 1095 l647 -370 0 -815 0 -815 -707 -404 c-388 -222 -711 -404
-718 -404 -11 0 -1302 734 -1387 789 l-38 24 0 809 c0 635 3 811 13 819 6 6
327 190 711 411 l700 400 66 -37 c37 -20 358 -203 713 -407z"/>
<path d="M1434 3017 c-346 -199 -642 -370 -657 -380 l-27 -17 0 -750 0 -750
38 -24 c116 -75 1286 -737 1295 -733 17 6 1234 704 1280 733 l37 24 0 750 0
750 -37 24 c-73 46 -1281 736 -1289 735 -5 0 -293 -163 -640 -362z m246 -747
c0 -230 4 -390 9 -390 5 0 11 4 13 9 3 9 1 7 393 449 l281 317 182 3 c106 1
182 -1 182 -7 0 -5 -59 -75 -131 -156 -71 -81 -129 -151 -127 -155 2 -5 36
-47 77 -94 l75 -86 143 0 143 0 0 -40 0 -40 -339 0 -339 0 -81 -89 c-45 -49
-81 -94 -81 -101 0 -6 35 -49 77 -96 l77 -84 341 -2 340 -3 3 -42 3 -43 -139
0 -140 0 -76 -84 c-42 -46 -76 -89 -76 -95 0 -9 124 -149 349 -394 l25 -27
-205 0 -205 0 -169 187 c-93 104 -266 295 -385 426 l-215 239 -3 -426 -2 -426
-150 0 -150 0 0 820 0 820 150 0 150 0 0 -390z"/>
</g>
</svg>
